<?xml version="1.0" encoding="UTF-8"?><svg xmlns="http://www.w3.org/2000/svg" viewBox="0 0 227.22 86.17"><defs><style>.d{fill:#005ef9;}.e{fill:#73b5ff;}</style></defs><g id="a"/><g id="b"><g id="c"><g><path class="d" d="M38.63,44.36h-10.91c-4.54,0-8.22-3.68-8.22-8.22v-8.42c0-4.54,3.68-8.22,8.22-8.22h9.39c2.52,0,4.57-2.05,4.57-4.57V4.57c0-2.52-2.05-4.57-4.57-4.57h-10.36c-2.52,0-4.57,2.05-4.57,4.57V13.96c0,4.54-3.68,8.22-8.22,8.22H4.57c-2.52,0-4.57,2.05-4.57,4.57v10.36c0,2.52,2.05,4.57,4.57,4.57H13.96c4.54,0,8.22,3.68,8.22,8.22v10.91c0,1.68,1.36,3.04,3.04,3.04h13.41c1.68,0,3.04-1.36,3.04-3.04v-13.41c0-1.68-1.36-3.04-3.04-3.04Z"/><path class="e" d="M194.69,22.52h21.83c.3,0,.6,.12,.81,.34l6.05,6.05c.72,.72,.21,1.96-.81,1.96h-25.75c-1.44,0-2.61,1.17-2.61,2.61v3.02c0,1.44,1.17,2.61,2.61,2.61h21.69c.31,0,.6,.12,.81,.34l7.56,7.6c.21,.22,.33,.51,.33,.81v7.32c0,.3-.12,.6-.33,.81l-7.56,7.6c-.22,.22-.51,.34-.81,.34h-22.21c-.31,0-.61-.12-.82-.35l-5.83-5.97c-.71-.73-.19-1.95,.82-1.95h25.8c1.43,0,2.6-1.16,2.6-2.6v-3.08c0-1.43-1.16-2.6-2.6-2.6h-21.58c-.3,0-.6-.12-.81-.33l-7.71-7.68c-.22-.22-.34-.51-.34-.81v-7.2c0-.31,.12-.6,.34-.81l7.71-7.68c.22-.21,.51-.33,.81-.33Z"/><path class="d" d="M46.24,41.82h9.39c4.54,0,8.22,3.68,8.22,8.22v8.42c0,4.54-3.68,8.22-8.22,8.22h-9.39c-2.52,0-4.57,2.05-4.57,4.57v10.36c0,2.52,2.05,4.57,4.57,4.57h10.36c2.52,0,4.57-2.05,4.57-4.57v-9.39c0-4.54,3.68-8.22,8.22-8.22h9.39c2.52,0,4.57-2.05,4.57-4.57v-10.36c0-2.52-2.05-4.57-4.57-4.57h-9.39c-4.54,0-8.22-3.68-8.22-8.22v-9.39c0-2.52-2.05-4.57-4.57-4.57h-10.36c-2.52,0-4.57,2.05-4.57,4.57v10.36c0,2.52,2.05,4.57,4.57,4.57Z"/><path class="e" d="M130.86,22.96l-18.42,18.49c-.45,.46-1.23,.13-1.23-.51V23.34c0-.52-.42-.95-.95-.95h-6.47c-.52,0-.95,.42-.95,.95V62.99c0,.54,.44,.98,.98,.98h6.4c.54,0,.98-.44,.98-.98v-12.92c0-1.72,1.39-3.11,3.11-3.11h12.95c1.72,0,3.11,1.39,3.11,3.11v12.97c0,.51,.42,.93,.93,.93h6.5c.51,0,.93-.42,.93-.93v-16.64c0-1.26-.36-2.51-1.11-3.52-1.42-1.92-3.28-2.91-5.51-2.91h-5.62c-.59,0-.88-.7-.47-1.12l14.47-14.86c.58-.6,.16-1.6-.67-1.6h-7.62c-.51,0-1,.2-1.36,.56Z"/><path class="e" d="M178.26,24.37c-1.31-1.31-2.87-1.98-4.64-1.98h-25.97c-.11,0-.22,.04-.3,.12l-5.7,5.85c-.57,.59-.16,1.58,.67,1.58h4.72c.6,0,.89,.72,.47,1.14l-2.65,2.65c-.35,.35-.55,.83-.55,1.33v27.97c0,.52,.42,.94,.94,.94h28.35c1.76,0,3.32-.67,4.64-1.98,1.31-1.31,1.98-2.87,1.98-4.63V29.01c0-1.77-.66-3.33-1.98-4.64Zm-25.16,5.58h15.72c1.68,0,3.05,1.37,3.05,3.05v19.56c0,1.68-1.37,3.05-3.05,3.05h-12.2c-.26,0-.5,.1-.68,.28l-2.54,2.54c-.26,.26-.7,.08-.7-.29V30.36c0-.23,.18-.41,.41-.41Z"/></g></g></g></svg>